<?xml version="1.0" encoding="UTF-8"?>
<svg id="Layer_1" data-name="Layer 1" xmlns="http://www.w3.org/2000/svg" viewBox="0 0 655 772">
  <defs>
    <style>
      .cls-1 {
        fill: #E11D48;
      }

      .cls-2 {
        fill: #1a1a1a;
      }

      .cls-3 {
        fill: #0a0a0a;
      }

      .cls-4 {
        fill: #E11D48;
      }
    </style>
  </defs>
  <path class="cls-4" d="M171,17h1l-1,9-8,24-6,23-4,24-1,11v26l4,30,11,42,6,19,7,15,9,17,9,14,10,14,13,17,9,12v2h2l14,19,7,10,8,16,3,11v24l-2,13,1,12,2,5h2v2l12,1,11-3,16-7,4-1,9,10,21,28,22,33,6,11,11,21,8,19,7,24,2,15v28l-4,18-6,16-8,16-8,14-6,11-12,16-8,10-16,16h-2v2l-12,9-14,9-16,8-20,8-23,6-22,4-31,2h-16l-22-2-17-4-24-8-16-8-16-9-17-12-15-13-15-14v-2l-3-1-7-8v-2h-2l-11-14-2-4-5-5,1-3,2,4h2v2l4,2,1,3h2v2l4,2,8,8,12,9,10,7,22,12,25,10,26,7,24,4h32l25-4,24-8,19-10,14-10,3-3h2v-2l8-7,7-9h2l2-5,10-15,9-19,5-13,4-13,6-27,3-30-4-2-7-4-8-2h-24l-24,5-27,9-15,6-15,3h-21l-13-3-11-6-5-5-1-3h-2l-3-7-1-5v-25l-1-13-4-10-8-7v-2l-4-2-1-3h-2l-2-5v-7l2-4h2l1-4-5-2-6-4-4-6-1-9,3-11,2-5,1-8-3-9-10-9-10-6-11-9-4-6v-8l5-10,5-6h2l2-4,4-4h2l2-4,8-9,5-8,4-10,3-13v-20l-15-1-10-3-5-3-1-3,10-2,2-4-9-6-3-4-1-5h3l10,6,4,1h15l-5-18-4-24-2-22v-32l2-24,4-27,5-19,8-21,9-16,3-5h2l2-5,9-11h2l2-4,13-11,7-4Z"/>
  <path class="cls-3" d="M343,146h14l33,2,30,4,41,7,23,5,41,10,7,3,1,1,3,23,6,17,4,9,5,10-2,4-22,13-10,6-11,6-8,5h-2v2l-6,4-9,9-10,15-8,17-5,17-3,19v21l3,9,6,10,5,5,8,9,6,4,5,5,10,7,4,12,4,2,8,6,16,8h9l16-6,14-7,10-4,12-6,3,1v2l9-5h2l2,6v14l-3,8-5,4-7,2-27,3-12,3-8,5-3,4-1,3v10l3,9,4,6,3,2v2h12l8-3,9-6h2v-2l7-4,4,5,3,13,3,14v9l-2,5-4,1,2,29-4-1v28l-5,12-5,7-8,16-4,5-4,2-5,7-5,3-3,4h-4l-5,8-2,1-9-7-4-4-7,1-6-12-7-7-8-10-5-9v-2h-6l-2-1v-2h-2l-5-9-6-9-3-10-2-10-13-20-4-9-3-8-12-12-2-6,1-7h-2v2l-5,3-2-1-1-6h-5l-2-6-3-6-5-4-1-3,1-2-3-9-5-27-1-10v-15l4-21,6-21,11-30,8-22v-22l-6-16-6-9-8-7-6-4-6-2h-17l-14,5-10,7-7,10-2,8v16l4,19,5,19,1,13-4,16-7,10-4,3h-2v2l-7,3-16,2-14,4-12,5-17,7-3-31-5-29-4-17-7-21-11-24-7-21-3-14-1-7v-21l3-18,4-11,8-16,8-12,9-10,14-9,13-5,18-4,16-2,15-1Z"/>
  <path class="cls-3" d="M500,9l2,3,2,8,7,1,4,5,3,2v2l14,7h2l4-10h2l1,9,5,5,6,3,12-5,6,2,8,8,7,5,4,4v2h2l-1-7,1-1h5l9,7,9,11,1,4h2l6,11,5,9,5,7,2,1v2l4-3h2l-1,15-2,20,7-2,3,5,3-1,2-2,2,2-1,10-6,10-19,19-10,7-9,4-7-1-17-6-23-7-25-6-31-7-52-11-31-5-24-2h-54l-26,3-26,5-20,6-7,1-5,6-7,1-1-1,1-10,8-14,5-4,8-8h2v-2h-3v-10l2-8h2l2-5,9-7,7-4h2v-9l3-5,14-9,16-9h2v-2h2l1-5,3-4h2v-2l7-3,5-1h26l1-7,2-3h2v-2l25-3,7-3,1-1,1-7,7,6,10,8,1,2,3-1,1-3h2v-2h6l11,5,7,2,1-6,4-2h7l8,3,8,4-5-10,6,1,2,1,1-13,1-3Z"/>
  <path class="cls-1" d="M232,0l1,2-4,18-2,21v30l3,32,7,41,7,28v6l-8,14-5,13-4,15-1,10v22l1,12h-3l-1-4h-2l-11-18-10-19-5-11-7-19-6-25-2-12-1-13v-23l3-27,5-20,7-20,10-19,6-10,10-13,6-7h2v-2l4-2Z"/>
  <path class="cls-1" d="M406,509l4,1,7,4v2l4,2,7,7,8,13,5,11,4,8,11,15,3,10,4,13,12,15v10l-4,17-8,24-13,33-7,16-8,16-10,19-2-2,4-11,7-27,3-15,2-17v-48l-3-23-4-20-7-25-7-19-9-20-3-6v-3Z"/>
  <path class="cls-2" d="M593,289l15,2,14,7,5,5,1,4-6,8-6,1-7-3-14-8-4-1h-9l-10,3-2,2h-3l2-6,3-5h2v-2l5-4,7-2,7-1Z"/>
</svg>
